<svg id="visual" viewBox="0 0 960 540" width="960" height="540" xmlns="http://www.w3.org/2000/svg" xmlns:xlink="http://www.w3.org/1999/xlink" version="1.1"><rect x="0" y="0" width="960" height="540" fill="#fff"></rect><path d="M0 463L107 478L213 490L320 458L427 490L533 470L640 476L747 468L853 445L960 457L960 541L853 541L747 541L640 541L533 541L427 541L320 541L213 541L107 541L0 541Z" fill="#febf8c"></path><path d="M0 481L107 495L213 492L320 504L427 501L533 501L640 465L747 465L853 481L960 481L960 541L853 541L747 541L640 541L533 541L427 541L320 541L213 541L107 541L0 541Z" fill="#fecfa9"></path><path d="M0 482L107 498L213 514L320 519L427 518L533 497L640 490L747 499L853 498L960 489L960 541L853 541L747 541L640 541L533 541L427 541L320 541L213 541L107 541L0 541Z" fill="#ffdfc5"></path><path d="M0 519L107 521L213 507L320 534L427 510L533 499L640 504L747 515L853 497L960 522L960 541L853 541L747 541L640 541L533 541L427 541L320 541L213 541L107 541L0 541Z" fill="#febf8c"></path></svg>